<svg width="30" height="30" viewBox="0 0 30 30" fill="none" xmlns="http://www.w3.org/2000/svg">
<path d="M29.0589 15.0852C29.058 7.32176 22.7645 1.02832 15.0002 1.02832C7.23578 1.02832 0.941406 7.3227 0.941406 15.0871C0.941406 22.0761 6.04141 27.8736 12.722 28.9621L12.8027 28.9733V19.1502H9.23266V15.0852H12.8027V11.9896C12.7848 11.833 12.7755 11.6511 12.7755 11.4674C12.7755 8.72707 14.9973 6.5052 17.7377 6.5052C17.8698 6.5052 18.0011 6.51082 18.1314 6.5202L18.1145 6.51926C19.2386 6.5352 20.3261 6.63457 21.3873 6.81176L21.2617 6.79395V10.2533H19.488C19.4073 10.2421 19.3145 10.2355 19.2208 10.2355C18.0986 10.2355 17.1883 11.1449 17.1883 12.268C17.1883 12.3318 17.1911 12.3946 17.1967 12.4574L17.1958 12.4489V15.0852H21.0948L20.4714 19.1502H17.1958V28.9733C23.958 27.8727 29.058 22.0743 29.0589 15.0852Z" fill="white"/>
</svg>
